PathFileType	4	(X/Y/Z)	C:/Users/opensim2020/Desktop/walking_exp_matlab/subject06_walking13_straight_02.trc	
DataRate	CameraRate	NumFrames	NumMarkers	Units	OrigDataRate	OrigDataStartFrame	OrigNumFrames	
100.00	100.00	4	50	mm	100.00	1711	199	
Frame#	Time	LFHD			RFHD			LBHD			RBHD			C7			T10			CLAV			STRN			RBAK			LSHO			LUPA			LELB			LFRM			LWRA			LWRB			LFIN			RSHO			RUPA			RELB			RFRM			RWRA			RWRB			RFIN			LASI			RASI			LPSI			RPSI			LTHI			LKNE			LTIB			LANK			LHEE			LTOE			RTHI			RKNE			RTIB			RANK			RHEE			RTOE			*39			*40			*41			*42			*43			*44			*45			*46			*47			*48			*49			
		X1	Y1	Z1	X2	Y2	Z2	X3	Y3	Z3	X4	Y4	Z4	X5	Y5	Z5	X6	Y6	Z6	X7	Y7	Z7	X8	Y8	Z8	X9	Y9	Z9	X10	Y10	Z10	X11	Y11	Z11	X12	Y12	Z12	X13	Y13	Z13	X14	Y14	Z14	X15	Y15	Z15	X16	Y16	Z16	X17	Y17	Z17	X18	Y18	Z18	X19	Y19	Z19	X20	Y20	Z20	X21	Y21	Z21	X22	Y22	Z22	X23	Y23	Z23	X24	Y24	Z24	X25	Y25	Z25	X26	Y26	Z26	X27	Y27	Z27	X28	Y28	Z28	X29	Y29	Z29	X30	Y30	Z30	X31	Y31	Z31	X32	Y32	Z32	X33	Y33	Z33	X34	Y34	Z34	X35	Y35	Z35	X36	Y36	Z36	X37	Y37	Z37	X38	Y38	Z38	X39	Y39	Z39	X40	Y40	Z40	X41	Y41	Z41	X42	Y42	Z42	X43	Y43	Z43	X44	Y44	Z44	X45	Y45	Z45	X46	Y46	Z46	X47	Y47	Z47	X48	Y48	Z48	X49	Y49	Z49	X50	Y50	Z50	

175	1.740	1495.07214	-821.23035	1661.24341	1364.35901	-807.87891	1643.34167	1511.14404	-684.76117	1617.89990	1383.22864	-673.18726	1605.43372	1462.11707	-667.86761	1451.75220	1458.77014	-642.39795	1119.25330	1455.62915	-778.71942	1374.68506	1468.04370	-822.64899	1200.71594	1394.27759	-593.80841	1275.27576	1619.17493	-733.06451	1412.74475	1701.81226	-772.58282	1218.71582	1720.53113	-799.90564	1109.75647	1737.04419	-885.66034	985.71985	1683.00171	-983.62726	908.99896	1728.51794	-938.43756	878.81732	1722.62476	-1011.56171	827.14191	1296.27075	-723.69196	1398.59473	1222.90637	-661.77155	1200.18274	1215.42322	-655.31036	1078.43665	1198.52930	-647.11090	958.36273	1219.09045	-684.30658	809.00537	1191.11633	-625.07001	822.23364	1182.04358	-643.54852	740.56879	1572.08582	-819.66943	963.17499	1350.17456	-830.14606	971.45087	1534.16968	-662.29431	986.93604	1366.18933	-677.36127	986.73273	1613.65283	-741.81616	647.78717	1586.25659	-729.37347	484.03769	1569.54187	-640.00641	240.63611	1516.35193	-596.95203	76.77756	1469.95374	-554.80255	68.68633	1517.05054	-737.72906	39.45839	1291.55457	-866.14362	647.47583	1318.28540	-913.11487	531.74359	1315.85046	-863.93756	272.97391	1354.69543	-841.95837	87.36153	1401.46448	-804.00104	62.50292	1348.80322	-990.20380	45.63791	1442.90417	-719.04736	1704.38599																														 
176	1.750	1494.16235	-831.64221	1660.27051	1363.55298	-818.04242	1642.25232	1510.58252	-695.26050	1616.81885	1382.74048	-683.43512	1604.21094	1461.52368	-678.81055	1450.67542	1458.00537	-652.43890	1118.40906	1455.11230	-789.16217	1373.55200	1467.67297	-832.80719	1199.49683	1393.97119	-604.08173	1274.49487	1618.48828	-743.62958	1411.84692	1701.17773	-784.12616	1218.28076	1719.95129	-812.46515	1109.52295	1736.10034	-901.12372	987.70642	1682.75452	-1002.60461	914.73212	1727.14978	-957.51501	882.53058	1721.75073	-1032.41833	833.45728	1295.70068	-734.08582	1397.58350	1222.59473	-670.30695	1199.71887	1215.34131	-662.88861	1077.95325	1198.75964	-653.67999	957.89771	1219.71460	-689.59045	808.14313	1191.54626	-630.51587	821.93732	1182.89954	-648.11237	739.95801	1571.90759	-829.23706	961.99438	1349.86487	-840.09161	970.00897	1533.63599	-671.94946	986.15686	1365.71204	-687.44739	985.71796	1613.39148	-749.13092	647.12726	1586.26880	-735.05023	483.47058	1569.42896	-642.45697	241.03719	1516.33411	-597.32623	77.57214	1469.91650	-555.39008	69.91143	1517.02527	-737.77826	39.34235	1291.20410	-874.10065	645.45380	1318.26843	-921.25122	529.63953	1316.85608	-884.43561	269.10226	1356.34534	-873.63110	82.60174	1403.95825	-837.17047	56.87490	1351.19006	-1023.84644	45.70642	1442.18811	-729.26709	1703.28699																														 
177	1.760	1493.19666	-842.02478	1659.32275	1362.65637	-828.09131	1641.06836	1509.97302	-705.75098	1615.63269	1382.17957	-693.72064	1602.84863	1461.00879	-689.37268	1449.60474	1457.45117	-662.48395	1117.53601	1454.51587	-799.63739	1372.36792	1467.17358	-843.02765	1198.22668	1393.63770	-614.38232	1273.59644	1617.82495	-754.09430	1410.91138	1700.46484	-795.54486	1217.66211	1719.22156	-824.91870	1109.17932	1735.43201	-916.68335	989.68347	1682.40540	-1020.48920	920.33826	1725.62024	-976.15289	886.25684	1720.70007	-1052.55603	839.63965	1295.13074	-744.46106	1396.53296	1222.20178	-678.91620	1199.24304	1215.19373	-670.66516	1077.43201	1198.87695	-660.55585	957.39856	1220.40857	-695.32556	807.52759	1191.96533	-636.28088	821.63953	1183.65137	-653.43219	739.35742	1571.55164	-838.96130	960.91492	1349.52075	-850.32343	968.53436	1533.06885	-681.68640	985.40027	1365.17688	-697.63306	984.69000	1613.17847	-756.53595	646.48669	1586.29565	-740.89185	482.86096	1569.57288	-645.00745	241.63538	1516.31873	-597.96167	78.60727	1469.96741	-555.72540	71.31972	1517.09766	-737.87689	39.30557	1290.73608	-881.39758	643.11719	1318.25366	-929.05164	527.26257	1317.96326	-904.54425	265.69226	1358.11462	-904.72034	79.08874	1406.01025	-869.41162	53.67154	1353.96863	-1056.84290	45.61191	1441.41797	-739.51733	1702.10986																														 
178	1.770	1492.20557	-852.53485	1658.33899	1361.81287	-838.16235	1639.73755	1509.49988	-716.28906	1614.45752	1381.58008	-704.02100	1601.52209	1460.33691	-699.95972	1448.52014	1456.47498	-672.66235	1116.51819	1453.71985	-810.12366	1371.13696	1466.46985	-853.10022	1196.83887	1393.19690	-624.70929	1272.59143	1617.14392	-764.41943	1409.91833	1699.66882	-806.93494	1216.92261	1718.41260	-837.18689	1108.71582	1734.37329	-931.70270	991.42426	1681.77112	-1037.81702	925.81219	1723.80566	-994.23431	889.85083	1719.49170	-1072.16235	845.80463	1294.44421	-754.76495	1395.47083	1221.69092	-687.70233	1198.70447	1214.96375	-678.77454	1076.84448	1198.91748	-667.79022	956.87061	1221.02478	-701.36749	806.79010	1192.26807	-642.56519	821.17578	1184.29993	-659.21399	738.76740	1570.88635	-849.30029	959.98425	1349.12708	-860.60492	967.00513	1532.49170	-691.58997	984.57904	1364.58850	-707.87250	983.58197	1613.27979	-764.12042	645.66211	1586.38232	-747.03070	482.19836	1569.76685	-647.64172	242.26610	1516.50684	-598.47443	79.71268	1470.31323	-556.34601	72.81555	1517.20361	-737.96069	39.28283	1290.10962	-889.00671	640.66284	1318.21912	-936.64740	524.62170	1319.16663	-924.15503	262.85971	1360.16565	-934.80542	76.71738	1408.21802	-900.48993	52.50306	1356.80945	-1088.60278	44.84641	1440.59705	-749.75854	1700.88794																														 
